{"title":"Vera S06E02 - Tuesdays Child x264 RB58.mp4","uid":13462586,"size":1016859833,"categoryP":"video","categoryS":"tv_shows","magnet":"?xt=urn:btih:2f49d9d600a0a0f18f4cedbc9043ccf0b42edb88&amp;dn=Vera+S06E02+-+Tuesdays+Child+x264+RB58.mp4&amp;tr=udp%3A%2F%2Ftracker.leechers-paradise.org%3A6969&amp;tr=udp%3A%2F%2Fzer0day.ch%3A1337&amp;tr=udp%3A%2F%2Fopen.demonii.com%3A1337&amp;tr=udp%3A%2F%2Ftracker.coppersurfer.tk%3A6969&amp;tr=udp%3A%2F%2Fexodus.desync.com%3A6969","seeders":1,"leechers":0,"uploader":"RedBaron58","files":1,"time":1454895973,"description":"Vera S06E02 - Tuesday's Child x264 mp4\r\n \nhttp://www.imdb.com/title/tt1693592/\r\n\r\nTrailer: (Previous series)\r\n\r\n\r\nPlease be patient My intial upload speed is limited.\r\nThank you for your kind comments and feedback on my other torrents, your feedback is welcome.\r\n\r\n\r\nAbout the Episode:\r\nThe detective investigates the discovery of a young man's body in an area notorious for \r\nillicit teenage gatherings, the corpse wrapped in plastic sheeting and having received a \r\nblow to the head. \r\nVera follows the trail to a funfair where the victim used to work and a church where he \r\nsought refuge, having recently been made homeless. \r\nShe delves into his family history to discover why he was on the streets when his parents \r\nlived nearby, while forensic evidence implicates the son of the vicar, who has a criminal past.\r\n\r\n\r\nI hope you enjoy.\r\n\r\n\r\nTechnical:\r\n\r\nGeneral\r\nComplete name                            : G:Vera S06E02 - Tuesdays Child x264 RB58.mp4\r\nFormat                                   : MPEG-4\r\nFormat profile                           : Base Media\r\nCodec ID                                 : isom\r\nFile size                                : 970 MiB\r\nDuration                                 : 1h 29mn\r\nOverall bit rate                         : 1 521 Kbps\r\nWriting application                      : Lavf54.63.104\r\n\r\nVideo\r\nID                                       : 1\r\nFormat                                   : AVC\r\nFormat/Info                              : Advanced Video Codec\r\nFormat profile                           :   \r\nFormat settings, CABAC                   : Yes\r\nFormat settings, ReFrames                : 4 frames\r\nCodec ID                                 : avc1\r\nCodec ID/Info                            : Advanced Video Coding\r\nDuration                                 : 1h 29mn\r\nBit rate                                 : 1 400 Kbps\r\nWidth                                    : 832 pixels\r\nHeight                                   : 468 pixels\r\nDisplay aspect ratio                     : 16:9\r\nFrame rate mode                          : Constant\r\nFrame rate                               : 25.000 fps\r\nColor space                              : YUV\r\nChroma subsampling                       : 4:2:0\r\nBit depth                                : 8 bits\r\nScan type                                : Progressive\r\nBits/(Pixel*Frame)                       : 0.144\r\nStream size                              : 893 MiB (92%)\r\nWriting library                          : x264 core 123 r2189 35cf912\r\nEncoding settings                        : cabac=1 / ref=3 / deblock=1:0:0\r\n\r\nAudio\r\nID                                       : 2\r\nFormat                                   : AAC\r\nFormat/Info                              : Advanced Audio Codec\r\nFormat profile                           : LC\r\nCodec ID                                 : 40\r\nDuration                                 : 1h 29mn\r\nBit rate mode                            : Constant\r\nBit rate                                 : 112 Kbps\r\nChannel(s)                               : 2 channels\r\nChannel positions                        : Front: L R\r\nSampling rate                            : 48.0 KHz\r\nCompression mode                         : Lossy\r\nStream size                              : 71.4 MiB (7%)","torrent":{"xt":"urn:btih:2f49d9d600a0a0f18f4cedbc9043ccf0b42edb88","amp;dn":"Vera+S06E02+-+Tuesdays+Child+x264+RB58.mp4","amp;tr":["udp%3A%2F%2Ftracker.leechers-paradise.org%3A6969","udp%3A%2F%2Fzer0day.ch%3A1337","udp%3A%2F%2Fopen.demonii.com%3A1337","udp%3A%2F%2Ftracker.coppersurfer.tk%3A6969","udp%3A%2F%2Fexodus.desync.com%3A6969"],"infoHash":"2f49d9d600a0a0f18f4cedbc9043ccf0b42edb88","infoHashBuffer":{"type":"Buffer","data":[47,73,217,214,0,160,160,241,143,76,237,188,144,67,204,240,180,46,219,136]},"announce":[],"urlList":[]}}